# xmcd
#
# Track frame offsets:
#	150
#	7535
#	25209
#	44934
#	52605
#	73968
#	96676
#	114190
#	120091
#	151031
#	169901
#	190601
#	216931
#	226164
#	246189
#	276308
#
# Disc length: 3936 seconds
#
# Revision: 2
# Processed by: cddbd v1.5.2PL0 Copyright (c) Steve Scherf et al.
# Submitted via: audiograbber 1.83.01
#
DISCID=ce0f5e10
DTITLE=Broken Marble - CD Stabbing My Heart
DYEAR=2009
DGENRE=Alternative
TTITLE0=Prologue
TTITLE1=Bodycheck
TTITLE2=Family Process
TTITLE3=Bittersweet Perplexity
TTITLE4=Animosity
TTITLE5=Planet Paradise?
TTITLE6=Be Somebody
TTITLE7=B.B.T. (Break Beat Theory)
TTITLE8=Symphony Of A Broken Legend
TTITLE9=Autumn Leaf
TTITLE10=Adrenaline
TTITLE11=Stabbing My Heart
TTITLE12=Something From The Inside
TTITLE13=L.O.S.T. (Love Syndrome Tragedy)
TTITLE14=Falling Star
TTITLE15=Epilogue
EXTD=
EXTT0=
EXTT1=
EXTT2=
EXTT3=
EXTT4=
EXTT5=
EXTT6=
EXTT7=
EXTT8=
EXTT9=
EXTT10=
EXTT11=
EXTT12=
EXTT13=
EXTT14=
EXTT15=
PLAYORDER=
